<?xml version="1.0" encoding="UTF-8"?>
<svg id="Layer_1" data-name="Layer 1" xmlns="http://www.w3.org/2000/svg" viewBox="0 0 161.17 116.84">
  <defs>
    <style>
      .cls-1 {
        fill: #1f1f1c;
      }
    </style>
  </defs>
  <g id="Generative_Object" data-name="Generative Object">
    <path class="cls-1" d="M27.55,100.59c.41-2.04.6-3.94.08-5.85-.71-2.57-2.35-4.49-4.86-5.52C9.74,83.88.47,71.35.09,57.08L0,25.13c0-2.91,1.23-5.63,3.32-7.5,2.79-2.5,6.66-3.12,10.18-1.58,2.96,1.29,5.55,4.42,5.56,8.1l.09,29.35c.01,3.92,1.09,7.42,2.9,10.82,4.01,7.52,11.97,11.97,20.56,11.43,6.03-.38,11.46-3.24,15.43-7.79,3.7-4.24,5.73-9.6,5.88-15.28.16-6.09,5-11.1,11.3-10.46,4.91.49,8.9,4.75,8.95,9.77.07,6.84,2.51,13.28,7.6,17.93s12.08,6.84,19.04,5.49c6.56-1.27,12.05-5.53,15.13-11.45,2.05-3.93,3.16-8.19,3.17-12.69l.08-31.52c.02-8.93,6.21-17.23,15-19.39,6.18-1.52,12.25,2,15.15,7.56,3.61,6.9,1.68,15.23-4.23,20.25l-6.13,5.19c-1.99,1.69-3.37,4.01-4.22,6.47-.67,1.95-.68,3.91-.7,5.96l-.09,11.53c-.05,6.68-1.54,13.08-4.79,18.91-8.07,14.49-24.92,21.6-40.75,16.03-6.23-2.19-11.58-5.93-15.91-10.88-2.17-2.48-4.75-4.07-7.9-4.17-3.31-.1-6.25,1.19-8.45,3.71l-2.94,2.82c-3.34,3.2-7.38,5.26-11.76,6.69-3.36,1.1-5.42,4.04-5.23,7.57l.95,5.17c.51,2.8.43,5.58-.92,8.13-2.31,4.37-7.37,6.47-12.05,5.17s-8.02-5.64-7.71-10.68l1.03-5.19Z"/>
  </g>
</svg>