<?xml version="1.0" encoding="UTF-8"?>
<svg id="Layer_1" data-name="Layer 1" xmlns="http://www.w3.org/2000/svg" viewBox="0 0 392.82 133.09">
  <defs>
    <style>
      .cls-1 {
        fill: #fff;
      }
    </style>
  </defs>
  <g id="Generative_Object" data-name="Generative Object">
    <path class="cls-1" d="M191.53,39.22c2.7,0,4.49,1.86,4.51,4.41l.07,10.19c.03,4.33.83,8.52,2.48,12.52,4.88,11.82,18.94,19.14,30.82,22.4l17.27,4.74c6.31,1.73,13.78,5.05,17.39,10.55,4.32,6.6,2.74,15.48-3.45,20.34-4.16,3.27-9.14,4.77-14.45,4.75-4.73-.02-9.23-1.19-13.09-3.93-2.56-1.82-4.73-3.97-6.57-6.5l-5.04-8.04c-1.36-2.18-2.75-4.1-4.6-5.88-4.89-4.7-12.52-5.45-18.03-1.37-2.56,1.9-4.13,4.56-5.46,7.41-2.35,5.04-5.41,9.43-9.59,13.11-8.02,7.08-18.7,10.4-29.3,8.81-5.69-.85-10.74-3.5-14.38-8.1-8.34,6.19-19.23,8.94-29.59,8.43-12.86-.47-22.91-5.63-31.85-14.77-3.88,3.73-7.88,7.09-12.61,9.58-7.68,4.04-16.24,5.59-24.9,5.17-12.64-.51-25.03-6.31-32.83-16.22-2.55-3.24-4.54-6.6-5.85-10.53C.92,101.57,0,96.83,0,91.78v-51.06c.01-2.53,1.93-4.25,4.35-4.25h14.71c2.08,0,3.54,1.58,3.55,3.7l.06,54.11c.66,6.52,3.71,12.22,9.08,15.89,11.96,7.6,28.91,2.87,33.79-10.5.85-2.32,1.48-4.7,1.48-7.22l.1-35.72c0-1.58.18-2.98.98-4.29.73-1.2,2.19-1.94,3.69-1.95l13.4-.07c2.94-.01,4.87,1.93,4.88,4.94l.1,37.08c.01,4.2,1.37,8.23,3.69,11.62,5.32,7.76,14.78,11.15,23.88,9.17,9.84-2.15,16.95-10.64,16.96-20.82l.05-51.18c0-1.2.14-2.29.75-3.22.69-1.05,2.09-1.57,3.4-1.57h14.1c1.21,0,2.49.41,3.24,1.33s1.11,2.17,1.11,3.49l-.06,51.38c0,7.58-2.46,14.52-6.39,21.01,9.22,2.85,17.21-.69,20.82-9.49,1.25-3.05,1.7-6.13,1.7-9.44l-.02-51c0-2.82,1.95-4.51,4.73-4.51h13.41Z"/>
    <path class="cls-1" d="M338.26,93.46c-2.69-2.99-6.16-4.41-10.01-3.73-4.1.72-6.65,5.11-6.66,9.09l-.1,27.45c0,2.44-1.83,4.33-4.24,4.35l-13.9.07c-2.87.01-4.63-2.12-4.64-4.85l-.07-15.7c-.03-7.14-3.44-13.55-8.33-18.61-6.48-6.7-15.81-11.43-24.58-14.47l-14.37-3.96c-6.65-1.83-12.45-3-18.64-6.68-6.62-3.93-9.49-12.15-6.34-19.29.86-1.95,2.12-3.76,3.74-5.15,8.87-7.61,22.16-7.48,30.82.39,4.65,4.23,7.63,10.79,12.49,16.26,2.9,3.25,6.76,4.9,11.13,4.85,3.41-.04,6.51-1.1,9.06-3.41,3.08-2.78,5-6.55,5.01-10.86l.1-43.09c0-1.77.1-3.33,1.4-4.55C301.16.61,302.69,0,304.19,0l12.64.03c2.47,0,4.65,1.9,4.65,4.53l.11,49.91c0,2.39.9,4.72,2.45,6.35,2.5,2.64,6.47,2.91,9.62,1.38,1.44-.7,2.54-1.62,3.65-2.71l4.52-4.42,6.81-6.71,5.98-5.81c2.12-2.06,4.48-3.84,7.25-4.92,1.91-.74,3.94-1.2,6-1.2h8.3c3.15,0,6.47,1.64,6.65,4.5.1,1.48-.46,2.64-1.55,3.65l-11.9,10.97-5.74,5.19c-1.73,1.56-3.1,3.25-4.33,5.3-3.89,6.48-3.42,14.91,1.74,20.69l29.26,32.77c1.74,1.95,2.64,4.24,2.5,6.78-.13,2.34-1.66,4.07-4.13,4.27-4.25.34-8.58.3-12.91.13-2.59-.11-4.87-1.05-6.54-2.89l-4.69-5.17-26.26-29.14Z"/>
    <circle class="cls-1" cx="184.85" cy="21.78" r="11.96"/>
  </g>
</svg>